<?xml version="1.0" encoding="UTF-8"?>
<!DOCTYPE svg PUBLIC "-//W3C//DTD SVG 1.1//EN" "http://www.w3.org/Graphics/SVG/1.1/DTD/svg11.dtd">
<!-- Creator: CorelDRAW X7 -->
<svg xmlns="http://www.w3.org/2000/svg" xml:space="preserve" width="210mm" height="297mm" version="1.1" style="shape-rendering:geometricPrecision; text-rendering:geometricPrecision; image-rendering:optimizeQuality; fill-rule:evenodd; clip-rule:evenodd"
viewBox="0 0 21000 29700"
 xmlns:xlink="http://www.w3.org/1999/xlink">
 <defs>
  <style type="text/css">
   <![CDATA[
    .str0 {stroke:#2B2A29;stroke-width:20}
    .fil1 {fill:none}
    .fil0 {fill:#701804}
   ]]>
  </style>
 </defs>
 <g id="Warstwa_x0020_1">
  <metadata id="CorelCorpID_0Corel-Layer"/>
  <path class="fil0 str0" d="M5487 4077c-245,367 -84,471 -50,508 34,37 342,-351 986,-336 644,16 1139,188 1226,90 58,-65 63,-81 12,-138 -231,-259 -1991,-400 -2174,-124z"/>
  <path class="fil0 str0" d="M7440 4963c29,44 276,-289 142,-416 -133,-128 -718,-198 -1073,-158 -355,40 -738,183 -909,297 -172,115 -206,223 56,164 262,-60 645,-125 919,-104 274,20 691,-18 865,217z"/>
  <path class="fil0 str0" d="M7380 5097c0,0 -508,-232 -1031,-223 -55,1 -115,6 -164,10 -328,25 -561,25 -648,123 -100,114 14,353 66,321 52,-31 175,-148 347,-178 173,-30 217,-65 514,-35 297,29 714,135 887,115 172,-19 29,-133 29,-133z"/>
  <path class="fil0 str0" d="M7351 5696c88,-172 45,-221 -78,-293 -122,-72 -336,-94 -542,-100 -206,-5 -650,-60 -1111,231 -433,273 634,15 863,11 243,-3 716,169 763,233 26,35 87,-49 105,-82z"/>
  <path class="fil0 str0" d="M7237 6026c19,-44 83,-144 -138,-205 -220,-60 -582,-147 -904,-107 -333,42 -382,52 -458,119 -75,68 -101,327 -5,321 95,-6 251,-159 453,-193 202,-34 1007,100 1052,65z"/>
  <path class="fil0 str0" d="M7083 6284c16,-3 93,-42 29,-141 -63,-100 -600,-84 -743,-78 -142,6 -419,115 -455,137 -35,22 -207,150 23,113 229,-37 453,-100 599,-101 145,-2 415,52 547,70z"/>
  <path class="fil0 str0" d="M6988 6491c25,15 103,-13 6,-82 -96,-69 -385,-84 -385,-84l-274 16 -432 81c-61,12 -135,177 -44,179 85,1 954,-232 1129,-110z"/>
  <path class="fil0 str0" d="M6902 6932c0,0 178,-297 71,-338 -107,-42 -410,-60 -648,-6 -238,53 -357,101 -416,148 -60,48 -73,143 61,86 134,-56 110,-47 254,-86 333,-88 662,129 678,196z"/>
  <line class="fil1 str0" x1="6341" y1="6717" x2="6341" y2= "7222" />
  <line class="fil1 str0" x1="6445" y1="6720" x2="6445" y2= "7225" />
  <line class="fil1 str0" x1="6341" y1="3432" x2="6341" y2= "3937" />
  <line class="fil1 str0" x1="6445" y1="3435" x2="6445" y2= "3940" />
 </g>
</svg>
